<?xml version="1.0" encoding="UTF-8"?>
<svg version="1.1" xmlns="http://www.w3.org/2000/svg" width="632" height="122">
<path d="M0 0 C208.56 0 417.12 0 632 0 C632 40.26 632 80.52 632 122 C423.44 122 214.88 122 0 122 C0 81.74 0 41.48 0 0 Z " fill="#FEFEFE" transform="translate(0,0)"/>
<path d="M0 0 C0.89576752 -0.00571014 1.79153503 -0.01142029 2.71444702 -0.01730347 C3.69476395 -0.01842133 4.67508087 -0.01953918 5.68510437 -0.02069092 C6.71953674 -0.02565582 7.75396912 -0.03062073 8.81974792 -0.03573608 C12.24842489 -0.05036407 15.67705559 -0.05716082 19.10575867 -0.06268311 C21.48606366 -0.06843406 23.86636863 -0.0741918 26.24667358 -0.07995605 C31.24096391 -0.09046788 36.23523813 -0.09630935 41.22953796 -0.09979248 C47.62875941 -0.10527735 54.02776809 -0.12930469 60.4269228 -0.15776443 C65.34513979 -0.17638906 70.26330552 -0.18159633 75.18155479 -0.18312836 C77.54065807 -0.18615583 79.89976042 -0.19418751 82.25882912 -0.20731354 C85.55993963 -0.22436982 88.86053015 -0.22249454 92.16166687 -0.21600342 C93.62303322 -0.22982559 93.62303322 -0.22982559 95.11392212 -0.243927 C100.3499925 -0.21167794 104.13277155 0.1187968 108.61747742 3.14044189 C119.34805518 19.23630854 110.61747742 41.79561772 110.61747742 61.14044189 C70.35747742 61.14044189 30.09747742 61.14044189 -11.38252258 61.14044189 C-11.38252258 5.14044189 -11.38252258 5.14044189 -7.38252258 1.14044189 C-4.586525 0.2084427 -2.89007729 0.01104309 0 0 Z " fill="#469DE6" transform="translate(15.382522583007813,20.85955810546875)"/>
<path d="M0 0 C41.91 0 83.82 0 127 0 C127 30.69 127 61.38 127 93 C117.1 93 107.2 93 97 93 C96.34 91.35 95.68 89.7 95 88 C93.515 87.505 93.515 87.505 92 87 C92.66 88.65 93.32 90.3 94 92 C93.15031143 91.99777939 92.30062286 91.99555878 91.42518616 91.99327087 C83.43463275 91.97326986 75.4440877 91.95802684 67.45351505 91.94818783 C63.34505715 91.94295954 59.23661986 91.93586287 55.12817383 91.92456055 C51.16653172 91.91372975 47.20490948 91.90772276 43.24325371 91.90512276 C41.72851689 91.90326886 40.21378121 91.8996489 38.69905281 91.89426994 C36.58458187 91.88705693 34.47019406 91.88600917 32.35571289 91.88647461 C31.14992081 91.884254 29.94412872 91.88203339 28.70179749 91.87974548 C26.08325599 91.69175539 26.08325599 91.69175539 25 93 C23.14630389 93.08737645 21.28932459 93.10698153 19.43359375 93.09765625 C18.30888672 93.09443359 17.18417969 93.09121094 16.02539062 93.08789062 C14.84138672 93.07951172 13.65738281 93.07113281 12.4375 93.0625 C11.24962891 93.05798828 10.06175781 93.05347656 8.83789062 93.04882812 C5.89190588 93.03699686 2.94594684 93.01906076 0 93 C0 86.73 0 80.46 0 74 C2.64 74.33 5.28 74.66 8 75 C7.05125 74.608125 6.1025 74.21625 5.125 73.8125 C2 72 2 72 0 67 C39.93 67 79.86 67 121 67 C121 68.32 121 69.64 121 71 C118.69 72.32 116.38 73.64 114 75 C118.8077059 74.79452713 118.8077059 74.79452713 122.70521545 72.33325195 C124.3548372 69.3605696 124.38707829 67.31247834 124.40405273 63.91796875 C124.41673691 62.68989502 124.42942108 61.46182129 124.44248962 60.1965332 C124.44043825 58.86018709 124.43745028 57.52384213 124.43359375 56.1875 C124.43815631 54.81274152 124.4434621 53.43798531 124.44947815 52.06323242 C124.45840436 49.1849642 124.45599152 46.30697353 124.44604492 43.42871094 C124.43454806 39.74300149 124.45477856 36.05824912 124.48396206 32.37266541 C124.50232005 29.53472832 124.50203266 26.69702087 124.49632454 23.85903931 C124.49617131 22.50028133 124.50221699 21.14150781 124.51461601 19.7828064 C124.52951561 17.88260156 124.5162242 15.98223906 124.50170898 14.08203125 C124.50154282 13.00155518 124.50137665 11.9210791 124.50120544 10.80786133 C123.88051621 7.33062593 122.71564984 6.18219423 120 4 C117.59452963 2.79726482 116.10039757 2.87421889 113.41383362 2.87301636 C112.44779205 2.87019653 111.48175049 2.86737671 110.48643494 2.86447144 C109.42300369 2.86649567 108.35957245 2.8685199 107.26391602 2.87060547 C105.58821533 2.86797699 105.58821533 2.86797699 103.87866211 2.86529541 C100.17039455 2.86087912 96.46217433 2.86381432 92.75390625 2.8671875 C90.18562308 2.86651435 87.61733996 2.86554423 85.04905701 2.86428833 C79.65956967 2.86281162 74.27010025 2.86487003 68.88061523 2.86962891 C62.64811751 2.87506858 56.41565252 2.87331061 50.1831556 2.8678025 C44.19132762 2.86271881 38.19951566 2.86325564 32.20768547 2.86618423 C29.65632053 2.86685278 27.10495475 2.86602761 24.55359077 2.86370468 C20.99086399 2.86117333 17.42820056 2.86502579 13.86547852 2.87060547 C12.8040715 2.86858124 11.74266449 2.86655701 10.64909363 2.86447144 C9.68023224 2.86729126 8.71137085 2.87011108 7.71315002 2.87301636 C6.44912023 2.8735819 6.44912023 2.8735819 5.15955448 2.87415886 C2.81588105 2.91664834 2.81588105 2.91664834 0 4 C0 2.68 0 1.36 0 0 Z " fill="#DAEBFA" transform="translate(4,17)"/>
<path d="M0 0 C7.23002822 4.70370562 12.46349735 9.88504374 15.0234375 18.31640625 C16.31772157 26.9520393 15.23145514 34.21896826 10.0234375 41.31640625 C4.23807989 47.76169058 -1.39628762 51.75625159 -10.05078125 52.625 C-20.54326311 53.02715087 -27.566458 50.35582555 -35.25 43.25390625 C-40.83996741 36.98100165 -42.40556657 29.72228045 -42.31640625 21.51953125 C-41.51887399 14.0025605 -37.43529182 7.80070497 -31.90234375 2.7890625 C-22.83902205 -4.14171292 -10.214485 -5.44899107 0 0 Z " fill="#0AB3F0" transform="translate(290.9765625,38.68359375)"/>
<path d="M0 0 C6.80163548 3.8723978 11.66277842 8.49562093 14.5 15.875 C16.9600824 24.98353292 15.87847064 31.50418903 11.328125 39.796875 C8.86411297 43.56921201 6.37570438 46.12068653 2.5625 48.5 C1.91796875 48.90992188 1.2734375 49.31984375 0.609375 49.7421875 C-6.05218533 53.31969212 -13.04664678 53.45745144 -20.4375 52.5 C-28.23034984 50.10708687 -34.28530323 45.27038681 -38.75390625 38.5078125 C-42.42680028 31.52035557 -42.84961694 23.39918121 -40.671875 15.84375 C-37.01383579 7.13413283 -31.67763966 2.84705198 -23.4375 -1.5 C-15.71086339 -4.07554554 -7.32751761 -3.41395707 0 0 Z " fill="#05B1F0" transform="translate(466.4375,38.5)"/>
<path d="M0 0 C5.383125 -0.0825 10.76625 -0.165 16.3125 -0.25 C17.98739502 -0.28641602 19.66229004 -0.32283203 21.38793945 -0.36035156 C30.55383505 -0.47784074 40.03093699 -0.50551675 47.22192383 6.01464844 C52.88107847 12.11893886 54.48041083 16.65307646 54.30859375 24.9609375 C53.68692769 31.08316785 51.19660671 35.15080173 46.75 39.3125 C43.11119639 42.20933498 39.41326191 43.60633835 35 45 C40.28830549 47.15294651 45.55123997 49.27933894 51 51 C51 51.99 51 52.98 51 54 C40.59510698 53.65885597 32.56910488 48.95539367 25 42 C24.67 45.63 24.34 49.26 24 53 C16.08 53 8.16 53 0 53 C0 35.51 0 18.02 0 0 Z " fill="#06B2F0" transform="translate(488,37)"/>
<path d="M0 0 C0.66 0 1.32 0 2 0 C2.87398437 1.69189453 2.87398437 1.69189453 3.765625 3.41796875 C8.42387795 12.38000048 13.21491335 21.24346486 18.25 30 C18.75998535 30.88719727 19.2699707 31.77439453 19.79541016 32.68847656 C20.76606409 34.37593574 21.73691873 36.06327948 22.70800781 37.75048828 C24.3655096 40.63639559 26.00707358 43.52917861 27.625 46.4375 C28.05039062 47.19933594 28.47578125 47.96117187 28.9140625 48.74609375 C30.205662 51.42685962 31.07844606 54.17330588 32 57 C27.56284145 57.14483042 23.12628723 57.23391752 18.6875 57.3125 C17.42486328 57.35439453 16.16222656 57.39628906 14.86132812 57.43945312 C13.65283203 57.45556641 12.44433594 57.47167969 11.19921875 57.48828125 C10.08377686 57.51446533 8.96833496 57.54064941 7.8190918 57.56762695 C5 57 5 57 3.11254883 54.59448242 C2 52 2 52 2 50 C-2.41809632 49.96471597 -6.83219264 50.00643645 -11.25 50.0625 C-12.50425781 50.05154297 -13.75851562 50.04058594 -15.05078125 50.02929688 C-21.39727833 49.85041331 -21.39727833 49.85041331 -26.75195312 52.62060547 C-28.042128 54.73010795 -28.042128 54.73010795 -29 58 C-29.99 58 -30.98 58 -32 58 C-31.42477932 53.5066095 -29.6971111 50.50904865 -27.3125 46.6875 C-26.49569287 45.36042166 -25.68072022 44.03221316 -24.8671875 42.703125 C-24.4144043 41.96513672 -23.96162109 41.22714844 -23.49511719 40.46679688 C-20.58156202 35.6597163 -17.76487112 30.79559218 -14.9375 25.9375 C-14.33639404 24.90584717 -13.73528809 23.87419434 -13.1159668 22.8112793 C-8.70380663 15.23023771 -4.32582555 7.63064879 0 0 Z " fill="#04B1F0" transform="translate(576,33)"/>
<path d="M0 0 C4.62 0 9.24 0 14 0 C14 11.22 14 22.44 14 34 C15.98 34 17.96 34 20 34 C20 34.99 20 35.98 20 37 C-8.38 37 -36.76 37 -66 37 C-66 36.34 -66 35.68 -66 35 C-64.02 35 -62.04 35 -60 35 C-60 30.38 -60 25.76 -60 21 C-55.71 21 -51.42 21 -47 21 C-47 25.62 -47 30.24 -47 35 C-44.69 35 -42.38 35 -40 35 C-40 25.1 -40 15.2 -40 5 C-35.71 5 -31.42 5 -27 5 C-27 14.9 -27 24.8 -27 35 C-24.69 35 -22.38 35 -20 35 C-20 27.41 -20 19.82 -20 12 C-15.38 12 -10.76 12 -6 12 C-6 19.26 -6 26.52 -6 34 C-4.02 34 -2.04 34 0 34 C0 22.78 0 11.56 0 0 Z " fill="#DEEDFA" transform="translate(84,39)"/>
<path d="M0 0 C7.92 0 15.84 0 24 0 C24 4.29 24 8.58 24 13 C26.72932745 11.39610636 29.45846709 9.79189465 32.1875 8.1875 C32.95642578 7.73568359 33.72535156 7.28386719 34.51757812 6.81835938 C35.26845703 6.37685547 36.01933594 5.93535156 36.79296875 5.48046875 C37.52435059 5.0529834 38.25573242 4.62549805 39.00927734 4.18505859 C40.62989908 3.22031762 42.22040208 2.20512166 43.80078125 1.17578125 C46 0 46 0 50 0 C50 0.99 50 1.98 50 3 C42.575 6.96 42.575 6.96 35 11 C35.81032791 15.86196746 36.27135049 18.0149195 38.51171875 22.046875 C39.02283203 22.975 39.53394531 23.903125 40.06054688 24.859375 C40.86588867 26.29023437 40.86588867 26.29023437 41.6875 27.75 C42.20505859 28.6884375 42.72261719 29.626875 43.25585938 30.59375 C46.31506134 36.1102188 49.50598162 41.50570926 52.90942383 46.81738281 C54 49 54 49 54 53 C52.17089844 52.78759766 52.17089844 52.78759766 50 52 C48.57128906 50.01318359 48.57128906 50.01318359 47.265625 47.3984375 C46.77739258 46.43945557 46.28916016 45.48047363 45.78613281 44.49243164 C45.27920898 43.4636792 44.77228516 42.43492676 44.25 41.375 C43.188071 39.27705463 42.12556943 37.17939897 41.0625 35.08203125 C40.54429687 34.04900879 40.02609375 33.01598633 39.4921875 31.95166016 C37.47198436 27.95554497 35.37225962 24.00510371 33.25 20.0625 C32.60931503 18.86591753 31.96868294 17.66930673 31.328125 16.47265625 C30.88984375 15.65667969 30.4515625 14.84070312 30 14 C27.38912669 14.91788506 27.38912669 14.91788506 25 17 C24.47401956 19.90759494 24.27812569 22.25430175 24.29296875 25.16796875 C24.27784744 25.96278152 24.26272614 26.7575943 24.24714661 27.57649231 C24.20417658 30.11378134 24.1954233 32.64988296 24.1875 35.1875 C24.16436271 36.9082349 24.13899897 38.62894141 24.11132812 40.34960938 C24.04419075 44.56705695 24.02333188 48.78117248 24 53 C16.08 53 8.16 53 0 53 C0 35.51 0 18.02 0 0 Z " fill="#02B0F0" transform="translate(369,37)"/>
<path d="M0 0 C1.70703125 1.48046875 1.70703125 1.48046875 3 3 C3 3.66 3 4.32 3 5 C0.24392612 4.36916531 -2.26690376 3.52158819 -4.875 2.4375 C-8.36517286 1.09110373 -11.22912169 0.71718413 -15 1 C-15.33 1.99 -15.66 2.98 -16 4 C-14.35471949 6.58912513 -14.35471949 6.58912513 -12 9.25 C-11.16855469 10.23226562 -10.33710938 11.21453125 -9.48046875 12.2265625 C-7.48730158 14.45514312 -5.46988671 16.55972643 -3.3125 18.625 C1.42300137 23.25011672 5.87741217 28.51023095 7.0625 35.1875 C6.97410749 40.579443 5.59523097 43.449081 1.75 47.1875 C-6.47986075 52.6117264 -14.38764028 53.03968492 -24 52 C-28.66423046 50.45857745 -32.51893706 48.48106294 -36 45 C-36 43.68 -36 42.36 -36 41 C-33.4785931 42.21027531 -31.2708965 43.49102889 -28.9375 45.0625 C-24.29069474 47.79173715 -19.27661282 47.80916409 -14 48 C-15.93874713 41.62983087 -19.59611641 38.24938724 -24.3515625 33.703125 C-30.92607025 26.99286046 -36.56991546 20.27665503 -36.47265625 10.67578125 C-35.61898044 5.84298847 -32.68113061 3.04569735 -29 0 C-20.66537677 -5.44301925 -8.61501915 -4.38878334 0 0 Z " fill="#07B2F0" transform="translate(183,39)"/>
<path d="M0 0 C18.15 0 36.3 0 55 0 C55 0.99 55 1.98 55 3 C49.72 3 44.44 3 39 3 C39 19.5 39 36 39 53 C31.08 53 23.16 53 15 53 C15 36.5 15 20 15 3 C10.05 3 5.1 3 0 3 C0 2.01 0 1.02 0 0 Z " fill="#04B1F0" transform="translate(192,37)"/>
<path d="M0 0 C4.54576843 2.56116726 7.63669998 4.97374283 10.4375 9.375 C10.4375 10.035 10.4375 10.695 10.4375 11.375 C7.12275684 10.78748535 5.4318076 9.73451919 3 7.4375 C-2.69780555 2.05697365 -8.75491058 1.79456171 -16.5625 0.375 C-16.5625 16.545 -16.5625 32.715 -16.5625 49.375 C-1.23384692 46.28899086 -1.23384692 46.28899086 8.4375 36.375 C8.9325 35.385 8.9325 35.385 9.4375 34.375 C10.4275 34.375 11.4175 34.375 12.4375 34.375 C12.17046527 38.78107307 10.38604385 41.44336667 7.484375 44.59375 C0.45074021 50.71462302 -7.19464244 53.32935657 -16.45703125 52.8203125 C-25.59097031 51.51054011 -31.90915387 47.66964017 -37.5625 40.375 C-42.11618938 33.58305652 -42.55102144 26.3622532 -41.5625 18.375 C-38.93592504 9.26239299 -33.94361126 4.30112206 -25.90234375 -0.390625 C-17.85092773 -4.63811659 -8.03541229 -3.81831626 0 0 Z " fill="#05B1F0" transform="translate(351.5625,38.625)"/>
<path d="M0 0 C16.34083601 1.48553055 16.34083601 1.48553055 22.88671875 7.828125 C27.76014991 13.82256333 29.33889233 19.48086796 28.8125 27.125 C27.69964138 35.47783538 23.717436 40.04294864 17.25 45.1875 C11.63171094 48.32077659 6.38633855 49 0 49 C0 32.83 0 16.66 0 0 Z " fill="#FCFEFE" transform="translate(450,39)"/>
<path d="M0 0 C15.57586837 1.55758684 15.57586837 1.55758684 21.890625 7.8984375 C26.45438089 13.6806719 28.494489 19.2512874 28.3203125 26.62890625 C27.50418591 32.67023357 24.40442142 38.82739024 20 43 C13.04798886 47.49836015 8.71873515 48.12812649 0 49 C0 32.83 0 16.66 0 0 Z " fill="#FEFEFE" transform="translate(275,39)"/>
<path d="M0 0 C41.91 0 83.82 0 127 0 C127 30.69 127 61.38 127 93 C117.1 93 107.2 93 97 93 C96.34 91.35 95.68 89.7 95 88 C92.58183186 85.58183186 91.97579808 85.81631862 88.6875 85.75 C85.03569507 85.43782958 83.319029 84.88885482 80.9375 82.0625 C79 79 79 79 79 77 C80.63412842 76.97812622 80.63412842 76.97812622 82.30126953 76.95581055 C86.36067785 76.89763928 90.41954237 76.82040818 94.47851562 76.73754883 C96.23200627 76.7043878 97.98560138 76.67632858 99.73925781 76.65356445 C102.26672698 76.6198553 104.79324638 76.56753308 107.3203125 76.51171875 C108.09867462 76.50532883 108.87703674 76.4989389 109.6789856 76.49235535 C114.47606645 76.36409342 117.85302668 75.6584067 122 73 C124.31789204 69.52316194 124.26161177 68.13805929 124.29052734 64.03149414 C124.30328705 62.80334488 124.31604675 61.57519562 124.32919312 60.30982971 C124.33225045 58.96827349 124.33447838 57.62671516 124.3359375 56.28515625 C124.3423648 54.90896973 124.34909311 53.53278459 124.35610962 52.15660095 C124.36808293 49.27241854 124.37179036 46.38835591 124.37060547 43.50415039 C124.37040218 39.8106092 124.39771344 36.11783657 124.43214989 32.42447758 C124.45440019 29.58227519 124.45844362 26.7402584 124.45738602 23.89797783 C124.45974446 22.53641547 124.46858185 21.17484819 124.48405075 19.81337166 C124.50367044 17.9083155 124.49536049 16.00303378 124.48583984 14.09790039 C124.48868988 13.01440811 124.49153992 11.93091583 124.49447632 10.81459045 C123.88207238 7.32874851 122.72189287 6.18488641 120 4 C117.59452963 2.79726482 116.10039757 2.87421889 113.41383362 2.87301636 C112.44779205 2.87019653 111.48175049 2.86737671 110.48643494 2.86447144 C109.42300369 2.86649567 108.35957245 2.8685199 107.26391602 2.87060547 C105.58821533 2.86797699 105.58821533 2.86797699 103.87866211 2.86529541 C100.17039455 2.86087912 96.46217433 2.86381432 92.75390625 2.8671875 C90.18562308 2.86651435 87.61733996 2.86554423 85.04905701 2.86428833 C79.65956967 2.86281162 74.27010025 2.86487003 68.88061523 2.86962891 C62.64811751 2.87506858 56.41565252 2.87331061 50.1831556 2.8678025 C44.19132762 2.86271881 38.19951566 2.86325564 32.20768547 2.86618423 C29.65632053 2.86685278 27.10495475 2.86602761 24.55359077 2.86370468 C20.99086399 2.86117333 17.42820056 2.86502579 13.86547852 2.87060547 C12.8040715 2.86858124 11.74266449 2.86655701 10.64909363 2.86447144 C9.68023224 2.86729126 8.71137085 2.87011108 7.71315002 2.87301636 C6.44912023 2.8735819 6.44912023 2.8735819 5.15955448 2.87415886 C2.81588105 2.91664834 2.81588105 2.91664834 0 4 C0 2.68 0 1.36 0 0 Z " fill="#459DE6" transform="translate(4,17)"/>
<path d="M0 0 C2.56832023 0.26449387 5.13353483 0.54388843 7.69921875 0.83203125 C8.42202026 0.90490356 9.14482178 0.97777588 9.88952637 1.05285645 C15.82928677 1.73879969 20.05849479 3.28756678 24 8 C27.10349284 13.14016002 27.92854507 18.11573685 27 24 C25.10968859 29.33986273 21.64860674 32.80977969 17 36 C12.63425924 37.63715279 8.65493536 38.62065805 4 38 C1.84863281 36.46582031 1.84863281 36.46582031 0 34 C-0.34939929 31.24913809 -0.46885179 28.9116444 -0.390625 26.171875 C-0.38496521 25.42286926 -0.37930542 24.67386353 -0.37347412 23.90216064 C-0.35114057 21.517448 -0.30095386 19.13425592 -0.25 16.75 C-0.22993091 15.13023009 -0.21168085 13.51043654 -0.1953125 11.890625 C-0.15128624 7.92650034 -0.08228298 3.96350768 0 0 Z " fill="#FDFEFE" transform="translate(512,40)"/>
<path d="M0 0 C39.93 0 79.86 0 121 0 C121 1.32 121 2.64 121 4 C116.60474385 8.13411125 110.98074981 7.43630639 105.32226562 7.41992188 C104.24692062 7.42839142 103.17157562 7.43686096 102.06364441 7.44558716 C98.51105914 7.46897577 94.95890642 7.46997894 91.40625 7.46875 C88.93672512 7.47584966 86.46720189 7.48354837 83.99768066 7.49182129 C78.82278862 7.50526986 73.64804916 7.50683275 68.47314453 7.50097656 C61.83827392 7.49507573 55.20413384 7.5256873 48.5694046 7.56609344 C43.47019499 7.59192633 38.3711624 7.59485191 33.27189636 7.59120178 C30.82543601 7.59289669 28.3789678 7.6025746 25.93257141 7.62034607 C22.51379264 7.64245078 19.0965075 7.63287598 15.67773438 7.61523438 C14.15958382 7.63512924 14.15958382 7.63512924 12.61076355 7.65542603 C7.86229019 7.59841699 5.70824764 7.53966794 1.8326416 4.58654785 C0 2 0 2 0 0 Z " fill="#469DE6" transform="translate(4,84)"/>
<path d="M0 0 C1.98 0.99 1.98 0.99 4 2 C6.92877937 2.23687056 9.77161186 2.37228572 12.703125 2.4140625 C13.54091492 2.43342865 14.37870483 2.4527948 15.24188232 2.4727478 C17.91115213 2.53240724 20.58046539 2.57887413 23.25 2.625 C25.06251854 2.66319236 26.87501918 2.70224482 28.6875 2.7421875 C33.12485415 2.83809752 37.56229325 2.9221788 42 3 C40.87548273 5.9719385 39.77706209 8.33440687 38 11 C35.9765625 11.37109375 35.9765625 11.37109375 33.625 11.4375 C30.30857776 11.69876156 29.24105201 11.81921099 26.5 13.875 C24.8331503 16.01931277 24.8331503 16.01931277 24 19 C16.08 19 8.16 19 0 19 C0 12.73 0 6.46 0 0 Z " fill="#3A97E5" transform="translate(4,91)"/>
<path d="M0 0 C0 3.72501518 -0.11325444 7.44480593 -0.21875 11.16796875 C-0.24094604 11.96278152 -0.26314209 12.7575943 -0.28601074 13.57649231 C-0.35694957 16.113506 -0.42846768 18.65050298 -0.5 21.1875 C-0.54821525 22.90820206 -0.59639279 24.62890517 -0.64453125 26.34960938 C-0.76258334 30.56641864 -0.88115494 34.78321301 -1 39 C-2.98 39 -4.96 39 -7 39 C-7 31.74 -7 24.48 -7 17 C-11.62 17 -16.24 17 -21 17 C-21 24.26 -21 31.52 -21 39 C-22.98 39 -24.96 39 -27 39 C-27 29.1 -27 19.2 -27 9 C-21 11 -21 11 -17.875 12.75 C-15.19369201 14.29229324 -15.19369201 14.29229324 -13.109375 13.390625 C-10.388954 11.59716226 -8.51079537 9.45723615 -6.375 7 C-2 2 -2 2 0 0 Z " fill="#429BE5" transform="translate(85,34)"/>
<path d="M0 0 C3.96 0 7.92 0 12 0 C12 11.55 12 23.1 12 35 C13.98 35 15.96 35 18 35 C18 35.33 18 35.66 18 36 C9.75 36 1.5 36 -7 36 C-7 35.67 -7 35.34 -7 35 C-4.69 35 -2.38 35 0 35 C0 23.45 0 11.9 0 0 Z " fill="#E7F2FB" transform="translate(85,39)"/>
<path d="M0 0 C0.495 4.455 0.495 4.455 1 9 C-0.32 8.67 -1.64 8.34 -3 8 C-5.2981277 7.77633096 -5.2981277 7.77633096 -7.42578125 10.1953125 C-8.39386582 11.16608106 -9.35579929 12.14301065 -10.3125 13.125 C-10.8072583 13.62620361 -11.3020166 14.12740723 -11.81176758 14.64379883 C-15.06349131 17.96430799 -18.13444792 21.34395079 -21 25 C-26.70635737 23.33049297 -31.50619088 20.62668916 -36.609375 17.65820312 C-40.12172441 15.55369648 -40.12172441 15.55369648 -44.06835938 15.28295898 C-46.91746608 16.34057102 -48.67215021 18.17753696 -50.875 20.25 C-51.75027344 21.05695312 -52.62554687 21.86390625 -53.52734375 22.6953125 C-54.75130859 23.83613281 -54.75130859 23.83613281 -56 25 C-57.96067047 26.81800214 -59.83595105 28.41654955 -62 30 C-62.99 29.67 -63.98 29.34 -65 29 C-65 28.34 -65 27.68 -65 27 C-63.40665761 25.56450274 -61.74748918 24.20172673 -60.0625 22.875 C-54.88866837 18.73995581 -49.9070425 14.44662864 -45 10 C-41.97990117 11.09768977 -39.19681445 12.40233112 -36.40625 13.98046875 C-35.76816406 14.33947266 -35.13007812 14.69847656 -34.47265625 15.06835938 C-33.15249277 15.81732341 -31.83736883 16.57523765 -30.52734375 17.34179688 C-27.67227471 18.93083025 -25.55012726 20.0070229 -22.24609375 19.96484375 C-19.58045754 18.81977915 -18.37695639 17.62892904 -16.5625 15.375 C-15.9746875 14.66085938 -15.386875 13.94671875 -14.78125 13.2109375 C-14.1934375 12.48132812 -13.605625 11.75171875 -13 11 C-11.85835752 9.66307657 -10.71286216 8.32942796 -9.5625 7 C-8.716875 6.01 -7.87125 5.02 -7 4 C-8.32 4 -9.64 4 -11 4 C-11 3.01 -11 2.02 -11 1 C-7.26513121 0.4254048 -3.78706732 0 0 0 Z " fill="#E9F3FC" transform="translate(93,24)"/>
<path d="M0 0 C4.08803567 -0.63047725 8.18862856 -0.55739763 12.32128906 -0.5559082 C14.36194808 -0.56245811 16.39770607 -0.61686579 18.4375 -0.67382812 C19.72398438 -0.67962891 21.01046875 -0.68542969 22.3359375 -0.69140625 C23.51720215 -0.70373291 24.6984668 -0.71605957 25.91552734 -0.72875977 C29 0 29 0 31.41650391 2.91821289 C33 6 33 6 33 8 C20.79 8 8.58 8 -4 8 C-2 3 -2 3 0 0 Z " fill="#459CE6" transform="translate(50,94)"/>
<path d="M0 0 C0 0.99 0 1.98 0 3 C-4.95 5.64 -9.9 8.28 -15 11 C-14.18967209 15.86196746 -13.72864951 18.0149195 -11.48828125 22.046875 C-10.97716797 22.975 -10.46605469 23.903125 -9.93945312 24.859375 C-9.40255859 25.81328125 -8.86566406 26.7671875 -8.3125 27.75 C-7.79494141 28.6884375 -7.27738281 29.626875 -6.74414062 30.59375 C-3.68493866 36.1102188 -0.49401838 41.50570926 2.90942383 46.81738281 C4 49 4 49 4 53 C2.17089844 52.78759766 2.17089844 52.78759766 0 52 C-1.42871094 50.01318359 -1.42871094 50.01318359 -2.734375 47.3984375 C-3.22260742 46.43945557 -3.71083984 45.48047363 -4.21386719 44.49243164 C-4.72079102 43.4636792 -5.22771484 42.43492676 -5.75 41.375 C-6.811929 39.27705463 -7.87443057 37.17939897 -8.9375 35.08203125 C-9.45570313 34.04900879 -9.97390625 33.01598633 -10.5078125 31.95166016 C-12.52801564 27.95554497 -14.62774038 24.00510371 -16.75 20.0625 C-17.39068497 18.86591753 -18.03131706 17.66930673 -18.671875 16.47265625 C-19.11015625 15.65667969 -19.5484375 14.84070312 -20 14 C-21.65 14.66 -23.3 15.32 -25 16 C-25 15.34 -25 14.68 -25 14 C-25.66 14 -26.32 14 -27 14 C-27 10.7 -27 7.4 -27 4 C-26.67 4 -26.34 4 -26 4 C-26 6.97 -26 9.94 -26 13 C-23.27067255 11.39610636 -20.54153291 9.79189465 -17.8125 8.1875 C-17.04357422 7.73568359 -16.27464844 7.28386719 -15.48242188 6.81835938 C-14.73154297 6.37685547 -13.98066406 5.93535156 -13.20703125 5.48046875 C-12.47564941 5.0529834 -11.74426758 4.62549805 -10.99072266 4.18505859 C-9.37010092 3.22031762 -7.77959792 2.20512166 -6.19921875 1.17578125 C-4 0 -4 0 0 0 Z " fill="#1DB9F1" transform="translate(419,37)"/>
<path d="M0 0 C4.06370464 3.47794541 5.99235787 7.51906607 8.25 12.25 C9.4875 14.8075 10.725 17.365 12 20 C4.41 20 -3.18 20 -11 20 C-5.375 8.75 -5.375 8.75 -2.6875 4.375 C-2.17574219 3.53710938 -1.66398438 2.69921875 -1.13671875 1.8359375 C-0.76160156 1.23007812 -0.38648438 0.62421875 0 0 Z " fill="#FBFDFE" transform="translate(564,60)"/>
<path d="M0 0 C8.17960554 -0.06943077 16.35908851 -0.12277566 24.53891563 -0.15543652 C28.33692183 -0.17111006 32.13472681 -0.19237859 35.93261719 -0.22631836 C39.59602467 -0.25885241 43.25923831 -0.27684029 46.92277908 -0.28463173 C48.3222827 -0.29018603 49.72177539 -0.30103199 51.12119675 -0.31719017 C53.07727511 -0.33888273 55.03354748 -0.3402247 56.98974609 -0.34057617 C58.1044931 -0.34723801 59.21924011 -0.35389984 60.36776733 -0.36076355 C61.6707225 -0.18218559 61.6707225 -0.18218559 63 0 C63.99 1.485 63.99 1.485 65 3 C43.22 3 21.44 3 -1 3 C-0.67 2.01 -0.34 1.02 0 0 Z " fill="#3A97E4" transform="translate(33,105)"/>
<path d="M0 0 C2.31 0 4.62 0 7 0 C7 8.91 7 17.82 7 27 C4.69 27 2.38 27 0 27 C0 18.09 0 9.18 0 0 Z " fill="#4BA0E6" transform="translate(47,47)"/>
<path d="M0 0 C1.98 0 3.96 0 6 0 C6 10.23 6 20.46 6 31 C4.02 31 2.04 31 0 31 C0 20.77 0 10.54 0 0 Z " fill="#3C99E4" transform="translate(88,42)"/>
<path d="M0 0 C1.64666203 0.1135629 3.29236082 0.24117381 4.9375 0.375 C5.85402344 0.44460937 6.77054687 0.51421875 7.71484375 0.5859375 C8.84599609 0.79089844 8.84599609 0.79089844 10 1 C10.495 1.99 10.495 1.99 11 3 C8.26635853 4.36682074 6.04962521 4.16265463 2.98974609 4.20532227 C1.72858978 4.22526749 0.46743347 4.24521271 -0.8319397 4.26576233 C-2.21347937 4.28274665 -3.59502034 4.29962546 -4.9765625 4.31640625 C-6.38618582 4.3369756 -7.79580297 4.35797207 -9.20541382 4.37937927 C-12.91747035 4.43460195 -16.62958257 4.48401031 -20.34173584 4.53222656 C-24.12891603 4.58244018 -27.91601526 4.63812697 -31.703125 4.69335938 C-39.13534812 4.80094333 -46.56763852 4.90238773 -54 5 C-54.33 5.66 -54.66 6.32 -55 7 C-33.22 7 -11.44 7 11 7 C11 7.33 11 7.66 11 8 C10.15253204 7.99777939 9.30506409 7.99555878 8.43191528 7.99327087 C0.45638957 7.97325739 -7.51912775 7.95802045 -15.49467278 7.94818783 C-19.59525496 7.94296291 -23.69581645 7.93587232 -27.79638672 7.92456055 C-31.75154957 7.91371782 -35.70669248 7.90772021 -39.66186905 7.90512276 C-41.17298827 7.90327102 -42.68410637 7.89965518 -44.19521713 7.89426994 C-46.30708958 7.88704114 -48.41887895 7.88600984 -50.53076172 7.88647461 C-51.73433319 7.884254 -52.93790466 7.88203339 -54.177948 7.87974548 C-56.95127165 7.8053321 -56.95127165 7.8053321 -59 9 C-58.69209738 6.15190074 -58.34521809 4.41713852 -56.5 2.1875 C-52.73512805 0.39918583 -49.09873595 0.76353446 -45 1 C-45 1.33 -45 1.66 -45 2 C-30.15 2 -15.3 2 0 2 C0 1.34 0 0.68 0 0 Z " fill="#E3F0FB" transform="translate(87,101)"/>
<path d="M0 0 C4.88317023 6.15704072 4.74017712 12.37182167 4 20 C1.75505737 27.84087279 -3.33777359 33.46015236 -10 38 C-12.41626776 39.06015405 -14.38027102 39.55408868 -17 40 C-17 38.68 -17 37.36 -17 36 C-16.33613281 35.72027344 -15.67226563 35.44054687 -14.98828125 35.15234375 C-7.52957287 31.76598126 -4.05502385 28.50148082 -0.6875 21.125 C0.51057911 15.67918586 0.22270148 10.55891035 -0.5625 5.0625 C-1 2 -1 2 0 0 Z " fill="#20BAF1" transform="translate(302,50)"/>
<path d="M0 0 C4.29 0 8.58 0 13 0 C13.33 10.23 13.66 20.46 14 31 C12.68 31 11.36 31 10 31 C10 21.76 10 12.52 10 3 C7.69 3 5.38 3 3 3 C2.34 2.34 1.68 1.68 1 1 C1 10.57 1 20.14 1 30 C0.67 30 0.34 30 0 30 C0 20.1 0 10.2 0 0 Z " fill="#E6F2FB" transform="translate(44,44)"/>
<path d="M0 0 C2.60546875 0.90234375 2.60546875 0.90234375 8.60546875 3.90234375 C8.27546875 14.13234375 7.94546875 24.36234375 7.60546875 34.90234375 C9.58546875 34.90234375 11.56546875 34.90234375 13.60546875 34.90234375 C13.60546875 35.23234375 13.60546875 35.56234375 13.60546875 35.90234375 C11.29546875 35.90234375 8.98546875 35.90234375 6.60546875 35.90234375 C6.60546875 26.00234375 6.60546875 16.10234375 6.60546875 5.90234375 C2.31546875 5.90234375 -1.97453125 5.90234375 -6.39453125 5.90234375 C-6.39453125 15.47234375 -6.39453125 25.04234375 -6.39453125 34.90234375 C-6.72453125 34.90234375 -7.05453125 34.90234375 -7.39453125 34.90234375 C-7.72453125 25.99234375 -8.05453125 17.08234375 -8.39453125 7.90234375 C-9.05453125 7.57234375 -9.71453125 7.24234375 -10.39453125 6.90234375 C-9.18301583 5.69684081 -7.94950236 4.51341628 -6.70703125 3.33984375 C-6.02253906 2.67855469 -5.33804688 2.01726563 -4.6328125 1.3359375 C-2.39453125 -0.09765625 -2.39453125 -0.09765625 0 0 Z " fill="#64ADEA" transform="translate(50.39453125,38.09765625)"/>
<path d="M0 0 C38.61 0 77.22 0 117 0 C117 0.33 117 0.66 117 1 C116.14108642 1.00496522 116.14108642 1.00496522 115.26482105 1.01003075 C101.32649419 1.09128125 87.38827706 1.18350524 73.4501009 1.28752708 C66.7096769 1.33763072 59.96926492 1.38407384 53.22875977 1.421875 C46.72535228 1.45835681 40.22206519 1.50507212 33.71877098 1.55806351 C31.23606863 1.57661411 28.75333809 1.59171959 26.27059364 1.60334396 C22.79655079 1.62019469 19.3228094 1.64922767 15.84887695 1.68115234 C14.81957062 1.68331253 13.79026428 1.68547272 12.72976685 1.68769836 C11.30587898 1.70444359 11.30587898 1.70444359 9.85322571 1.7215271 C8.62124938 1.72982324 8.62124938 1.72982324 7.36438465 1.73828697 C4.64405191 2.03939979 2.48876108 2.88675062 0 4 C0 2.68 0 1.36 0 0 Z " fill="#3695E4" transform="translate(4,17)"/>
<path d="M0 0 C1.98 0 3.96 0 6 0 C6 6.6 6 13.2 6 20 C4.02 20 2.04 20 0 20 C0 13.4 0 6.8 0 0 Z " fill="#3E99E5" transform="translate(68,53)"/>
<path d="M0 0 C3.02255603 3.02255603 3.20824321 6.33169466 3.4375 10.5 C3.35016173 17.8800842 0.04977134 24.60922048 -4.8515625 30.05859375 C-7.54512145 32.44841095 -9.5570396 33.85234653 -13 35 C-11.59099426 30.51679992 -9.32565176 28.24453831 -6 25 C-1.38492941 18.50471547 -0.78157873 12.10240973 -1.02734375 4.35546875 C-1 2 -1 2 0 0 Z " fill="#27BCF2" transform="translate(479,53)"/>
<path d="M0 0 C0.33 0.99 0.66 1.98 1 3 C13.54 3 26.08 3 39 3 C39 2.34 39 1.68 39 1 C39.99 1 40.98 1 42 1 C42 1.99 42 2.98 42 4 C44.31 4 46.62 4 49 4 C49 4.33 49 4.66 49 5 C29.86 5 10.72 5 -9 5 C-9 4.67 -9 4.34 -9 4 C-7.02 4 -5.04 4 -3 4 C-3 3.34 -3 2.68 -3 2 C-2.01 1.34 -1.02 0.68 0 0 Z " fill="#F9FBFE" transform="translate(45,99)"/>
<path d="M0 0 C0.99 0 1.98 0 3 0 C5.33496753 4.66993506 4.70556739 11.43275479 3.3515625 16.359375 C1.03944862 21.45788252 -2.55443065 24.70328565 -7 28 C-7.66 27.34 -8.32 26.68 -9 26 C-9 25.34 -9 24.68 -9 24 C-8.071875 23.2575 -7.14375 22.515 -6.1875 21.75 C-2.95686707 19.09217433 -1.31420712 17.08864438 0 13 C0.23337164 8.65410143 0.17414623 4.34720586 0 0 Z " fill="#19B7F1" transform="translate(538,51)"/>
<path d="M0 0 C2.31 0 4.62 0 7 0 C7 3.96 7 7.92 7 12 C4.69 12 2.38 12 0 12 C0 8.04 0 4.08 0 0 Z " fill="#4DA1E7" transform="translate(27,62)"/>
<path d="M0 0 C5.66666667 0 11.33333333 0 17 0 C16.625 2.4375 16.625 2.4375 16 5 C13.43435275 6.28282363 11.48966931 6.20391953 8.625 6.25 C7.66851562 6.27578125 6.71203125 6.3015625 5.7265625 6.328125 C2.62107853 5.95439914 1.29463934 5.06626291 -1 3 C-0.67 2.01 -0.34 1.02 0 0 Z " fill="#A6D0F3" transform="translate(12,27)"/>
<path d="M0 0 C0.66 0.33 1.32 0.66 2 1 C2 1.66 2 2.32 2 3 C34.67 3.495 34.67 3.495 68 4 C68 4.33 68 4.66 68 5 C67.15253204 4.99777939 66.30506409 4.99555878 65.43191528 4.99327087 C57.45638957 4.97325739 49.48087225 4.95802045 41.50532722 4.94818783 C37.40474504 4.94296291 33.30418355 4.93587232 29.20361328 4.92456055 C25.24845043 4.91371782 21.29330752 4.90772021 17.33813095 4.90512276 C15.82701173 4.90327102 14.31589363 4.89965518 12.80478287 4.89426994 C10.69291042 4.88704114 8.58112105 4.88600984 6.46923828 4.88647461 C5.26566681 4.884254 4.06209534 4.88203339 2.822052 4.87974548 C0.04872835 4.8053321 0.04872835 4.8053321 -2 6 C-1.125 1.125 -1.125 1.125 0 0 Z " fill="#C6E1F7" transform="translate(30,104)"/>
<path d="M0 0 C0.99 0.99 1.98 1.98 3 3 C1.27024644 5.99136691 -0.48704557 8.96559845 -2.25 11.9375 C-2.74113281 12.78763672 -3.23226562 13.63777344 -3.73828125 14.51367188 C-4.46337891 15.72700195 -4.46337891 15.72700195 -5.203125 16.96484375 C-5.64301758 17.7137085 -6.08291016 18.46257324 -6.53613281 19.23413086 C-8.26599722 21.32087357 -9.3584974 21.64136903 -12 22 C-10.2657267 17.02642312 -7.56672043 12.68501047 -4.875 8.1875 C-4.40707031 7.39923828 -3.93914063 6.61097656 -3.45703125 5.79882812 C-2.30784603 3.86397546 -1.15542997 1.93112772 0 0 Z " fill="#20BAF1" transform="translate(561,59)"/>
<path d="M0 0 C6.6 0 13.2 0 20 0 C20 0.99 20 1.98 20 3 C13.4 3 6.8 3 0 3 C0 2.01 0 1.02 0 0 Z " fill="#D4E8F9" transform="translate(8,40)"/>
<path d="M0 0 C0 0.99 0 1.98 0 3 C-7.92 6.96 -7.92 6.96 -16 11 C-16 9.68 -16 8.36 -16 7 C-13.515625 5.078125 -13.515625 5.078125 -10.25 3.25 C-9.18265625 2.63640625 -8.1153125 2.0228125 -7.015625 1.390625 C-4 0 -4 0 0 0 Z " fill="#1EB9F1" transform="translate(419,37)"/>
<path d="M0 0 C3.3 0 6.6 0 10 0 C10 4.62 10 9.24 10 14 C7.04335481 15.4783226 4.25770263 15.06032783 1 15 C1 14.67 1 14.34 1 14 C2.98 14 4.96 14 7 14 C7 9.71 7 5.42 7 1 C4.69 1 2.38 1 0 1 C0 0.67 0 0.34 0 0 Z " fill="#EFF6FC" transform="translate(27,60)"/>
<path d="M0 0 C0.99 0 1.98 0 3 0 C2.67966374 5.28554836 -0.27017327 8.5274027 -4 12 C-7.375 13.9375 -7.375 13.9375 -10 15 C-8.66932878 10.26872454 -5.80856057 7.30327896 -2.55859375 3.76953125 C-0.92943284 2.07185494 -0.92943284 2.07185494 0 0 Z " fill="#1AB8F1" transform="translate(361,73)"/>
<path d="M0 0 C0.33 0.99 0.66 1.98 1 3 C-1.98585993 8.49398226 -5.9639876 12.98799587 -12 15 C-10.59168351 10.51899299 -8.41176733 8.17373705 -5 5 C-3.6078125 3.6078125 -3.6078125 3.6078125 -2.1875 2.1875 C-1.1046875 1.1046875 -1.1046875 1.1046875 0 0 Z " fill="#17B7F1" transform="translate(478,73)"/>
<path d="M0 0 C0.33 2.97 0.66 5.94 1 9 C-2.83736322 8.04065919 -3.59660228 7.76390737 -6 5 C-5.67 4.01 -5.34 3.02 -5 2 C-6.65 2 -8.3 2 -10 2 C-10.33 2.66 -10.66 3.32 -11 4 C-11 3.01 -11 2.02 -11 1 C-7.26513121 0.4254048 -3.78706732 0 0 0 Z " fill="#E0EEFA" transform="translate(93,24)"/>
<path d="M0 0 C11.88 0 23.76 0 36 0 C36 0.33 36 0.66 36 1 C31.35524228 1.14299754 26.7104668 1.28539826 22.06567383 1.42724609 C20.48559067 1.47558454 18.9055125 1.52408602 17.32543945 1.57275391 C15.05421213 1.64268173 12.78296754 1.71202309 10.51171875 1.78125 C9.80536789 1.80312378 9.09901703 1.82499756 8.3712616 1.84753418 C5.57927832 1.93216876 2.79348204 2 0 2 C0 1.34 0 0.68 0 0 Z " fill="#4BA0E6" transform="translate(83,94)"/>
<path d="M0 0 C1.32 0 2.64 0 4 0 C3.625 2.4375 3.625 2.4375 3 5 C0.29120665 6.35439668 -2.00933268 6.06501451 -5 6 C-5 5.34 -5 4.68 -5 4 C-4.0409375 3.8453125 -4.0409375 3.8453125 -3.0625 3.6875 C-2.381875 3.460625 -1.70125 3.23375 -1 3 C-0.67 2.01 -0.34 1.02 0 0 Z " fill="#87BFEE" transform="translate(25,27)"/>
<path d="M0 0 C0.66 0.33 1.32 0.66 2 1 C0.9375 3.375 0.9375 3.375 -1 6 C-4.6875 7.3125 -4.6875 7.3125 -8 8 C-8 6.68 -8 5.36 -8 4 C-6.71349294 3.30289269 -5.42059335 2.61757124 -4.125 1.9375 C-3.40570313 1.55464844 -2.68640625 1.17179687 -1.9453125 0.77734375 C-1.30335938 0.52082031 -0.66140625 0.26429687 0 0 Z " fill="#21BAF2" transform="translate(293,82)"/>
<path d="M0 0 C2.76276177 0.52268466 5.3260876 1.10869587 8 2 C8 2.66 8 3.32 8 4 C4.37 4 0.74 4 -3 4 C-2.01 2.68 -1.02 1.36 0 0 Z " fill="#409AE5" transform="translate(49,39)"/>
<path d="M0 0 C0 0.99 0 1.98 0 3 C-2.97 4.32 -5.94 5.64 -9 7 C-5.5 0 -5.5 0 0 0 Z " fill="#10B5F0" transform="translate(419,37)"/>
<path d="M0 0 C0.99 0 1.98 0 3 0 C3.33 1.98 3.66 3.96 4 6 C3.34 6 2.68 6 2 6 C2 7.65 2 9.3 2 11 C1.67 11 1.34 11 1 11 C0.67 7.37 0.34 3.74 0 0 Z " fill="#25BBF2" transform="translate(538,51)"/>
<path d="M0 0 C0.66 0.33 1.32 0.66 2 1 C0 3.66666667 -2 6.33333333 -4 9 C-4.99 8.67 -5.98 8.34 -7 8 C-7 7.34 -7 6.68 -7 6 C-5.46875 4.4921875 -5.46875 4.4921875 -3.5 2.875 C-2.8503125 2.33617187 -2.200625 1.79734375 -1.53125 1.2421875 C-1.0259375 0.83226562 -0.520625 0.42234375 0 0 Z " fill="#DAEBFA" transform="translate(35,45)"/>
<path d="M0 0 C0.66 0.99 1.32 1.98 2 3 C0.35 4.32 -1.3 5.64 -3 7 C-3.99 6.01 -4.98 5.02 -6 4 C-4.02 2.68 -2.04 1.36 0 0 Z " fill="#E9F3FC" transform="translate(126,86)"/>
<path d="M0 0 C0.33 0 0.66 0 1 0 C1 2.97 1 5.94 1 9 C2.65 8.34 4.3 7.68 6 7 C6.33 7.99 6.66 8.98 7 10 C5.35 10.66 3.7 11.32 2 12 C2 11.34 2 10.68 2 10 C1.34 10 0.68 10 0 10 C0 6.7 0 3.4 0 0 Z " fill="#3AC2F3" transform="translate(392,41)"/>
<path d="M0 0 C0.66 0.66 1.32 1.32 2 2 C0.6875 4.5 0.6875 4.5 -1 7 C-1.99 7 -2.98 7 -4 7 C-3.6875 4.625 -3.6875 4.625 -3 2 C-2.01 1.34 -1.02 0.68 0 0 Z " fill="#21BAF1" transform="translate(548,84)"/>
<path d="M0 0 C0.33 0.99 0.66 1.98 1 3 C-0.62339805 4.70884005 -2.29319053 6.37446717 -4 8 C-4.66 8 -5.32 8 -6 8 C-4.55746343 4.63408134 -2.66735273 2.48952921 0 0 Z " fill="#12B5F1" transform="translate(537,70)"/>
<path d="M0 0 C1.32 0 2.64 0 4 0 C4.33 2.97 4.66 5.94 5 9 C4.01 9 3.02 9 2 9 C2.33 6.36 2.66 3.72 3 1 C2.01 0.67 1.02 0.34 0 0 Z " fill="#BADBF6" transform="translate(89,24)"/>
</svg>
